<svg width="46" height="58" viewBox="0 0 46 58" fill="none" xmlns="http://www.w3.org/2000/svg">
<path fill-rule="evenodd" clip-rule="evenodd" d="M37.1881 15.3345C39.7253 18.8065 41.9065 22.4566 43.4644 26.4628C44.7108 29.6232 45.4675 32.9172 45.423 36.3447C45.2004 42.9326 42.4851 48.4077 37.2771 52.681C33.8496 55.4853 29.8434 57.1323 25.3921 57.622C25.1473 57.6442 24.9135 57.6776 24.6798 57.711C24.4462 57.7444 24.2125 57.7778 23.9677 57.8H21.564C21.2077 57.7555 20.8626 57.711 20.5175 57.6664C20.1727 57.6219 19.8278 57.5774 19.4718 57.5329C13.151 56.5982 8.1655 53.6603 4.42639 48.7638C2.20074 45.8705 0.865345 42.621 0.331188 39.06C-0.158457 35.8105 0.153134 32.5611 1.0434 29.4006C2.24525 25.2609 4.24835 21.4773 6.69657 17.9162C9.76797 13.4204 13.3735 9.36972 17.2907 5.54159C18.4687 4.39302 19.6662 3.30291 20.8703 2.2068C21.4862 1.64618 22.1037 1.08399 22.7213 0.511604C22.8103 0.378065 22.9439 0.289038 23.0774 0.200012C23.117 0.233921 23.1558 0.267111 23.194 0.299767C23.4568 0.524323 23.69 0.723565 23.9231 0.956736C28.8196 5.36354 33.3599 10.0374 37.1881 15.3345ZM22.3207 33.29C22.3634 33.2995 22.4065 33.3092 22.4502 33.3189C22.4066 33.3092 22.3634 33.2996 22.3208 33.29C22.3207 33.29 22.3207 33.29 22.3207 33.29Z" fill="#47AE91"/>
</svg>
