<svg width="60" height="60" viewBox="0 0 60 60" fill="none" xmlns="http://www.w3.org/2000/svg">
<path fill-rule="evenodd" clip-rule="evenodd" d="M59.3334 30C59.3334 46.2004 46.2004 59.3333 30.0001 59.3333C13.7997 59.3333 0.666748 46.2004 0.666748 30C0.666748 13.7997 13.7997 0.666672 30.0001 0.666672C46.2004 0.666672 59.3334 13.7997 59.3334 30ZM42.5524 25.219C43.5938 24.1776 43.5938 22.4891 42.5524 21.4477C41.511 20.4063 39.8225 20.4063 38.7811 21.4477L26.1793 34.0496L21.382 28.2928C20.4392 27.1614 18.7577 27.0086 17.6263 27.9514C16.4949 28.8942 16.342 30.5758 17.2848 31.7072L23.9515 39.7072C24.4311 40.2827 25.1308 40.63 25.8792 40.6639C26.6277 40.6979 27.3559 40.4154 27.8857 39.8856L42.5524 25.219Z" fill="#47AE91"/>
</svg>
